<?xml version="1.0" encoding="utf-8"?>
<!-- Generator: Adobe Illustrator 16.0.4, SVG Export Plug-In . SVG Version: 6.00 Build 0)  -->
<!DOCTYPE svg PUBLIC "-//W3C//DTD SVG 1.1//EN" "http://www.w3.org/Graphics/SVG/1.1/DTD/svg11.dtd">
<svg version="1.1" id="Layer_1" xmlns="http://www.w3.org/2000/svg" xmlns:xlink="http://www.w3.org/1999/xlink" x="0px" y="0px"
	 width="549px" height="560px" viewBox="0 0 549 560" enable-background="new 0 0 549 560" xml:space="preserve">
<path fill="#E74C3C" d="M102.3,327.319v-36.4c0-16.24,13.44-29.68,29.68-29.68h82.32v-34.16c0-6.16,5.04-11.2,11.2-11.2
	s11.2,5.04,11.2,11.2v82.32c0,3.92,3.36,7.278,7.28,7.278h88.479c6.16,0,11.2,5.04,11.2,11.2s-5.04,11.2-11.2,11.2H243.98
	c-16.24,0-29.682-13.44-29.682-29.68v-26.319h-82.319c-3.92,0-7.28,3.359-7.28,7.279v36.399c0,6.16-5.04,11.2-11.2,11.2
	C107.341,337.959,102.3,333.479,102.3,327.319z M431.58,411.319c-6.16,0-11.2,5.04-11.2,11.2v9.52c0,3.92-3.358,7.28-7.278,7.28
	h-80.08c-3.92,0-7.28-3.36-7.28-7.28c0-17.36-18.48-31.92-34.16-31.92h-70c-6.16,0-11.2,5.04-11.2,11.2s5.04,11.2,11.2,11.2h70
	c5.04,0,11.76,6.158,11.76,9.52c0,16.24,13.44,29.68,29.682,29.68h80.08c16.238,0,29.68-13.438,29.68-29.68v-9.52
	C442.78,416.359,437.74,411.319,431.58,411.319z M186.3,395.639L186.3,395.639v80.641c0,4.479-2.24,7.84-6.16,10.08l-61.6,30.8
	c-0.561,0-1.119,0.56-1.119,0.56c-0.561,0-0.561,0-1.121,0.562c-1.119,0-1.68,0-2.8,0l0,0c-1.12,0-1.68,0-2.8-0.562
	c-0.561,0-0.561,0-1.12-0.56c-0.56,0-1.12,0-1.12-0.561l-61.6-30.801c-3.92-1.68-6.16-5.6-6.16-10.08v-79.52v-0.562
	c0-0.56,0-1.118,0-1.68v-0.56c0.56-1.682,1.12-3.36,2.24-4.48l0.56-0.56c0.56-0.562,1.12-1.12,1.68-1.12c0,0,0,0,0.56-0.562
	c0,0,0,0,0.56,0c0,0,0.56,0,0.56-0.56l61.6-30.8c3.36-1.682,6.721-1.682,10.08,0l61.6,30.8c0,0,0.561,0,0.561,0.56c0,0,0,0,0.561,0
	c0,0,0,0,0.56,0.562c0.56,0.56,1.12,0.56,1.68,1.12l0.56,0.56c1.121,1.12,2.24,2.8,2.24,4.48v0.56
	C186.3,394.52,186.3,395.079,186.3,395.639z M76.54,396.199l36.96,18.479l36.96-18.479l-36.96-18.48L76.54,396.199z M102.3,433.719
	l-39.199-19.6v54.88l39.199,19.6V433.719z M163.9,414.119l-39.2,19.6v54.88l39.2-19.6V414.119z M490.38,325.079
	c0,34.72-28.56,63.28-63.278,63.28c-34.722,0-63.28-28.562-63.28-63.28c0-34.721,28.56-63.28,63.28-63.28
	C461.82,261.799,490.38,290.358,490.38,325.079z M467.98,325.079c0-22.4-18.48-40.88-40.88-40.88
	c-22.4,0-40.881,18.479-40.881,40.88s18.48,40.88,40.881,40.88C449.5,365.959,467.98,347.479,467.98,325.079z M147.66,151.479
	c-0.56-3.36,0-6.72,1.681-8.96l67.199-95.76c0-0.56,0.562-0.56,1.12-1.12s0.56-0.56,1.12-1.12c1.12-1.68,3.92-2.8,6.72-2.8l0,0l0,0
	l0,0l0,0l0,0c2.8,0,5.602,1.12,7.28,2.8c0.56,0.56,0.56,0.56,1.12,1.12c0.56,0.56,0.56,0.56,1.12,1.12l67.198,95.76
	c1.682,2.8,2.24,6.16,1.682,8.96c-0.562,3.36-2.8,5.6-5.602,7.28l-67.198,33.6c-0.562,0-0.562,0.56-1.12,0.56
	c-0.562,0-1.12,0.56-1.682,0.56c-1.119,0-1.68,0-2.8,0c-1.68,0-3.359-0.56-4.479-1.12l0,0h-0.562l-67.2-33.6
	C150.46,157.079,148.22,154.839,147.66,151.479z M236.7,164.359l39.2-19.6l-39.2-56V164.359z M175.101,144.199l39.199,19.6v-75.6
	L175.101,144.199z M422.62,292.039c-14,1.681-25.2,11.76-27.439,25.76c-1.119,6.16,2.801,11.762,8.959,12.88c0.562,0,1.12,0,2.24,0
	c5.04,0,10.08-3.92,11.2-8.96c0.56-3.92,3.92-7.278,7.84-7.278c6.16-0.562,10.642-6.16,10.08-12.32
	C434.38,295.959,428.22,291.479,422.62,292.039z M504.94,196.279c-21.28-21.28-49.28-32.48-78.96-32.48
	c-29.682,0-57.682,11.76-78.96,32.48c-4.48,4.48-4.48,11.2,0,15.68c4.479,4.48,11.198,4.48,15.68,0
	c16.8-16.8,39.2-26.32,63.28-26.32c24.079,0,46.479,9.52,63.279,26.32c2.239,2.24,5.039,3.36,7.841,3.36c2.8,0,5.6-1.12,7.84-3.36
	C509.42,207.479,509.42,200.759,504.94,196.279z M394.061,242.759c8.398-8.4,20.158-13.44,32.479-13.44s23.521,4.479,32.48,13.44
	c2.239,2.24,5.04,3.36,7.84,3.36s5.6-1.12,7.84-3.36c4.479-4.48,4.479-11.2,0-15.68c-12.88-12.88-29.68-20.16-48.16-20.16
	c-17.92,0-35.278,7.28-48.16,20.16c-4.479,4.48-4.479,11.2,0,15.68C382.3,247.239,389.58,247.239,394.061,242.759z"/>
</svg>
